<?xml version="1.0" encoding="utf-8"?>
<svg xmlns="http://www.w3.org/2000/svg" xmlns:xlink="http://www.w3.org/1999/xlink" style="margin: auto; background: none; display: block; shape-rendering: auto;" width="200px" height="200px" viewBox="0 0 100 100" preserveAspectRatio="xMidYMid">
<g transform="rotate(0 50 50)">
  <rect x="45" y="26" rx="5" ry="5" width="10" height="10" fill="#0047bb">
    <animate attributeName="opacity" values="1;0" keyTimes="0;1" dur="0.4444444444444444s" begin="-0.38095238095238093s" repeatCount="indefinite"></animate>
  </rect>
</g><g transform="rotate(51.42857142857143 50 50)">
  <rect x="45" y="26" rx="5" ry="5" width="10" height="10" fill="#0047bb">
    <animate attributeName="opacity" values="1;0" keyTimes="0;1" dur="0.4444444444444444s" begin="-0.31746031746031744s" repeatCount="indefinite"></animate>
  </rect>
</g><g transform="rotate(102.85714285714286 50 50)">
  <rect x="45" y="26" rx="5" ry="5" width="10" height="10" fill="#0047bb">
    <animate attributeName="opacity" values="1;0" keyTimes="0;1" dur="0.4444444444444444s" begin="-0.25396825396825395s" repeatCount="indefinite"></animate>
  </rect>
</g><g transform="rotate(154.28571428571428 50 50)">
  <rect x="45" y="26" rx="5" ry="5" width="10" height="10" fill="#0047bb">
    <animate attributeName="opacity" values="1;0" keyTimes="0;1" dur="0.4444444444444444s" begin="-0.19047619047619047s" repeatCount="indefinite"></animate>
  </rect>
</g><g transform="rotate(205.71428571428572 50 50)">
  <rect x="45" y="26" rx="5" ry="5" width="10" height="10" fill="#0047bb">
    <animate attributeName="opacity" values="1;0" keyTimes="0;1" dur="0.4444444444444444s" begin="-0.12698412698412698s" repeatCount="indefinite"></animate>
  </rect>
</g><g transform="rotate(257.14285714285717 50 50)">
  <rect x="45" y="26" rx="5" ry="5" width="10" height="10" fill="#0047bb">
    <animate attributeName="opacity" values="1;0" keyTimes="0;1" dur="0.4444444444444444s" begin="-0.06349206349206349s" repeatCount="indefinite"></animate>
  </rect>
</g><g transform="rotate(308.57142857142856 50 50)">
  <rect x="45" y="26" rx="5" ry="5" width="10" height="10" fill="#0047bb">
    <animate attributeName="opacity" values="1;0" keyTimes="0;1" dur="0.4444444444444444s" begin="0s" repeatCount="indefinite"></animate>
  </rect>
</g>
<!-- [ldio] generated by https://loading.io/ --></svg>