<?xml version="1.0" encoding="utf-8"?>
<!-- Generator: Adobe Illustrator 24.3.0, SVG Export Plug-In . SVG Version: 6.00 Build 0)  -->
<svg version="1.1" id="Layer_1" xmlns="http://www.w3.org/2000/svg" xmlns:xlink="http://www.w3.org/1999/xlink" x="0px" y="0px"
	 viewBox="0 0 120 25" style="enable-background:new 0 0 120 25;" xml:space="preserve">
<style type="text/css">
	.st0{fill:#D40E1E;}
</style>
<g>
	<g>
		<path class="st0" d="M93.5,4.7h4.9V1.3h-4.9L93.5,4.7L93.5,4.7z M39.6,1.6v14.5c0,1.2,0.2,2.3,0.6,3.2c0.4,0.9,0.9,1.7,1.6,2.4
			c0.7,0.7,1.6,1.1,2.7,1.4c1.1,0.3,2.3,0.4,3.7,0.2v-4c-1.2,0.1-2.2-0.1-2.8-0.6c-0.6-0.5-0.9-1.4-0.9-2.6V10h3.5V6.1h-3.5V1.7
			L39.6,1.6L39.6,1.6z M8.6,5.6C7.3,5.6,6.1,5.8,5,6.2C4,6.6,3.1,7.1,2.3,7.8C1.6,8.5,1,9.3,0.6,10.3c-0.4,0.9-0.6,2-0.6,3.1v10.1
			h4.9V13.2c0-1,0.3-1.8,1-2.4c0.7-0.6,1.6-0.9,2.7-0.9c0.8,0,1.5,0.1,1.9,0.4c0.5,0.2,0.8,0.6,1.1,0.9c0.2,0.4,0.4,0.7,0.5,1.1
			c0.1,0.4,0.1,0.7,0.1,0.9v10.2h4.9V13.3c0-1.1-0.2-2.2-0.6-3.1c-0.4-0.9-0.9-1.7-1.7-2.4c-0.7-0.7-1.6-1.2-2.7-1.6
			C11.1,5.8,9.9,5.6,8.6,5.6z M28.6,5.6c-1.4,0-2.6,0.3-3.8,0.8c-1.2,0.5-2.2,1.1-3.1,1.9c-0.9,0.8-1.6,1.8-2.1,2.9
			c-0.5,1.1-0.7,2.3-0.7,3.5c0,1.3,0.2,2.4,0.7,3.5c0.5,1.1,1.2,2.1,2.1,2.9c0.9,0.8,1.9,1.5,3.1,1.9c1.2,0.5,2.5,0.7,3.8,0.7
			c2.4,0,4.4-0.5,6-1.6c1.6-1.1,2.7-2.6,3.3-4.3h-5.2c-0.4,0.7-1,1.2-1.7,1.6c-0.7,0.3-1.5,0.5-2.3,0.5c-0.8,0-1.6-0.2-2.3-0.5
			c-0.7-0.3-1.3-0.8-1.8-1.4L38,12.9c-0.2-1.2-0.6-2.2-1.2-3.1c-0.6-0.9-1.3-1.7-2.1-2.3c-0.8-0.6-1.8-1.1-2.8-1.4
			C30.8,5.8,29.7,5.6,28.6,5.6z M28.5,9.5c0.8,0,1.5,0.1,2.2,0.4c0.6,0.3,1.2,0.6,1.6,1.1l-9,3.5c0-0.7,0.2-1.4,0.4-2
			c0.3-0.6,0.7-1.1,1.1-1.6c0.5-0.4,1-0.8,1.6-1C27.1,9.6,27.8,9.5,28.5,9.5z M89.7,5.6c-0.9,0-1.8,0.1-2.5,0.3
			C86,6.2,84.9,6.7,84,7.4C83.2,8.1,82.5,9,82,10c-0.4,1-0.7,2.1-0.7,3.4v10.1h4.9V13.3c0-1.2,0.5-2.2,1.4-2.8
			c1-0.7,2.2-0.9,3.8-0.6V5.7C90.9,5.6,90.3,5.6,89.7,5.6z M100.2,5.9l6.7,8.5l-6.9,9h6l4-5.4l3.9,5.4h6.3l-7.1-9.2l6.5-8.3h-6
			l-3.6,4.8l-3.4-4.8H100.2z M50,6v10c0,1.1,0.2,2.2,0.6,3.2c0.4,0.9,1,1.8,1.7,2.5c0.7,0.7,1.6,1.2,2.7,1.6c1,0.4,2.2,0.6,3.6,0.6
			c1.3,0,2.4-0.2,3.5-0.6c1-0.5,1.9-1,2.6-1.8c0.7,0.8,1.6,1.4,2.6,1.8c1,0.4,2.2,0.6,3.5,0.6c1.3,0,2.5-0.2,3.5-0.6
			c1.1-0.4,2-1,2.7-1.7c0.8-0.7,1.4-1.5,1.7-2.5c0.4-1,0.6-2,0.6-3.1V6h-4.9v10.2c0,1-0.3,1.8-1,2.4c-0.7,0.6-1.6,0.9-2.7,0.9
			c-0.8,0-1.5-0.1-1.9-0.4c-0.5-0.2-0.8-0.6-1.1-0.9c-0.2-0.4-0.4-0.7-0.5-1.1c-0.1-0.4-0.1-0.7-0.1-0.9V6h-4.9v10.2
			c0,1-0.4,1.8-1.1,2.4c-0.7,0.6-1.6,0.9-2.7,0.9c-0.8,0-1.4-0.1-1.9-0.4c-0.5-0.2-0.8-0.6-1.1-0.9c-0.3-0.4-0.4-0.7-0.5-1.1
			c-0.1-0.4-0.1-0.7-0.1-0.9V6L50,6L50,6z M93.5,23.4h4.9V5.6h-4.9L93.5,23.4L93.5,23.4z"/>
	</g>
</g>
</svg>
