<?xml version="1.0" encoding="utf-8"?>
<!-- Generator: Adobe Illustrator 24.3.0, SVG Export Plug-In . SVG Version: 6.00 Build 0)  -->
<svg version="1.1"
	 id="svg2" sodipodi:docname="vecteezy_illustration-file-not-found-or-404-error-page_6736566.eps" xmlns:inkscape="http://www.inkscape.org/namespaces/inkscape" xmlns:sodipodi="http://sodipodi.sourceforge.net/DTD/sodipodi-0.dtd" xmlns:svg="http://www.w3.org/2000/svg"
	 xmlns="http://www.w3.org/2000/svg" xmlns:xlink="http://www.w3.org/1999/xlink" x="0px" y="0px" viewBox="0 0 2666.7 2666.7"
	 style="enable-background:new 0 0 2666.7 2666.7;" xml:space="preserve">
<style type="text/css">
	.st0{display:none;fill:#FFFFFF;}
	.st1{fill:#D4D3D1;}
	.st2{fill:#0E88E2;}
	.st3{fill:#095FB8;}
	.st4{fill:#66C5FF;}
</style>
<sodipodi:namedview  bordercolor="#000000" borderopacity="0.25" id="namedview4" inkscape:deskcolor="#d1d1d1" inkscape:pagecheckerboard="0" inkscape:pageopacity="0.0" inkscape:showpageshadow="2" pagecolor="#ffffff">
	</sodipodi:namedview>
<g id="g10" transform="scale(0.1)">
	<path id="path12" class="st0" d="M-3743.3,30410H30410V-3743.3H-3743.3V30410z"/>
	<path id="path14" class="st1" d="M12759.6,21697.7c-3407.5,0-6169.8-264.2-6169.8-590.2c0-325.8,2762.3-590.2,6169.8-590.2
		c3407.4,0,6169.7,264.3,6169.7,590.2C18929.4,21433.5,16167,21697.7,12759.6,21697.7"/>
	<path id="path16" class="st1" d="M24399,23286.1c-1141.2,0-2066.3-172.6-2066.3-385.6s925-385.6,2066.3-385.6
		s2066.3,172.6,2066.3,385.6S25540.2,23286.1,24399,23286.1"/>
	<path id="path18" class="st2" d="M18752.8,6217.1v13572.2c0,320.5-127.4,628.1-354,854.9c-226.8,226.6-534.2,354-854.9,354H7769.6
		c-320.6,0-628-127.4-854.7-354c-226.7-226.8-354-534.3-354-854.9V4950.6c0-320.5,127.3-628.1,354-854.7
		c226.7-226.8,534.2-354,854.7-354h8419.8c91-0.2,178.6,35.3,244.2,98.7l2225.3,2154.7c29.5,28.9,53.3,63.4,69.5,101.4
		C18744.4,6134.8,18752.8,6175.8,18752.8,6217.1"/>
	<path id="path20" class="st3" d="M18752.8,6211.9h-1193.3c-340.3,0.3-667.4-131.7-912.4-367.8
		c-244.9-236.2-388.5-558.4-400.6-898.4l-42.2-1203.7c82.1,0,161,31.8,219.9,89l2238.6,2167.4c28.5,27.8,51.2,61,66.6,97.7
		C18744.9,6132.6,18753,6172.1,18752.8,6211.9"/>
	<path id="path22" class="st3" d="M16825,8008H7790.4c-124.7,0-225.9,101.1-225.9,225.9c0,124.7,101.1,225.8,225.9,225.8H16825
		c124.8,0,225.9-101.1,225.9-225.8C17050.9,8109.1,16949.8,8008,16825,8008"/>
	<path id="path24" class="st3" d="M15366.1,9363.2H7810.7c-135.9,0-246.2,110.1-246.2,246.1c0,136.1,110.2,246.2,246.2,246.2h7555.5
		c136.1,0,246.2-110.1,246.2-246.2C15612.4,9473.3,15502.2,9363.2,15366.1,9363.2"/>
	<path id="path26" class="st3" d="M15366.1,10758.9H7810.7c-135.9,0-246.2,110.3-246.2,246.2s110.2,246.1,246.2,246.1h7555.5
		c136.1,0,246.2-110.1,246.2-246.1S15502.2,10758.9,15366.1,10758.9"/>
	<path id="path28" class="st3" d="M12468.1,12163.9H7810.7c-136,0-246.2,110.3-246.2,246.2s110.2,246.2,246.2,246.2h4657.4
		c135.9,0,246.1-110.3,246.1-246.2C12714.3,12274.2,12604,12163.9,12468.1,12163.9"/>
	<path id="path30" class="st3" d="M12468.1,13559.9H7810.7c-136,0-246.2,110.1-246.2,246.2c0,135.9,110.2,246.1,246.2,246.1h4657.4
		c135.9,0,246.1-110.1,246.1-246.1C12714.3,13670.1,12604,13559.9,12468.1,13559.9"/>
	<path id="path32" class="st3" d="M12468.1,14955.8H7810.7c-136,0-246.2,110.1-246.2,246.1c0,136.1,110.2,246.2,246.2,246.2h4657.4
		c135.9,0,246.1-110.1,246.1-246.2C12714.3,15065.9,12604,14955.8,12468.1,14955.8"/>
	<path id="path34" class="st3" d="M16825,16247H7790.4c-124.7,0-225.9,101.1-225.9,225.8c0,124.8,101.1,225.9,225.9,225.9H16825
		c124.8,0,225.9-101.1,225.9-225.9S16949.8,16247,16825,16247"/>
	<path id="path36" class="st3" d="M15366.1,17602.2H7810.7c-135.9,0-246.2,110.1-246.2,246.1c0,135.9,110.2,246.2,246.2,246.2
		h7555.5c136.1,0,246.2-110.3,246.2-246.2C15612.4,17712.3,15502.2,17602.2,15366.1,17602.2"/>
	<path id="path38" class="st3" d="M17212,18997.8H7868.9c-168.1,0-304.4,110.3-304.4,246.2s136.3,246.1,304.4,246.1H17212
		c168.2,0,304.5-110.1,304.5-246.1S17380.2,18997.8,17212,18997.8"/>
	<path id="path40" class="st2" d="M20410.8,17756.2l-520.2,520.2l1226.8,1227l520.3-520.2L20410.8,17756.2"/>
	<path id="path42" class="st3" d="M16695.6,19574.5c2897.4,0,5246.5-2348.9,5246.5-5246.5S19593,9081.4,16695.6,9081.4
		c-2897.6,0-5246.6,2349.1-5246.6,5246.6S13798,19574.5,16695.6,19574.5"/>
	<path id="path44" class="st4" d="M16695.4,18777.5c2457.5,0,4449.7-1992.2,4449.7-4449.5c0-2457.5-1992.2-4449.5-4449.7-4449.5
		c-2457.3,0-4449.5,1992-4449.5,4449.5C12245.9,16785.4,14238.1,18777.5,16695.4,18777.5"/>
	<path id="path46" class="st3" d="M21141.5,18956.3l-0.2,0.2c-277.3,277.2-277.3,726.8,0,1004.1l2756.3,2756.3
		c277.3,277.2,726.8,277.2,1003.9,0l0.3-0.2c277.2-277.3,277.2-727,0-1004.1l-2756.3-2756.3
		C21868.3,18679,21418.6,18679,21141.5,18956.3"/>
	<path id="path48" class="st3" d="M15038.4,13238.9l521.4,521.3l-347.7,347.5l-521.4-521.2l-521.4,521.2l-347.5-347.5l521.3-521.3
		l-521.3-521.4l347.5-347.5l521.4,521.3l521.4-521.3l347.7,347.5L15038.4,13238.9"/>
	<path id="path50" class="st3" d="M19047.7,13238.9l521.4,521.3l-347.7,347.5l-521.3-521.2l-521.4,521.2l-347.5-347.5l521.4-521.3
		l-521.4-521.4l347.5-347.5l521.4,521.3l521.3-521.3l347.7,347.5L19047.7,13238.9"/>
	<path id="path52" class="st3" d="M17678.5,16001.2h-1966.2v491.5h1966.2V16001.2"/>
</g>
</svg>
